<svg width="12" height="11" viewBox="0 0 12 11" fill="none" xmlns="http://www.w3.org/2000/svg">
<path d="M8.81811 1.15068C8.08494 1.11613 7.21076 1.44437 6.48419 2.39453L6.0012 3.02222L5.51762 2.39453C4.79044 1.44437 3.91566 1.11613 3.18249 1.15068C2.43671 1.19099 1.77313 1.59985 1.43654 2.25057C1.10535 2.89553 1.05675 3.85146 1.72393 5.02621C2.36831 6.16065 3.67807 7.48512 6.0012 8.83263C8.32313 7.48512 9.63229 6.16065 10.2767 5.02621C10.9432 3.85146 10.8946 2.89553 10.5629 2.25057C10.2263 1.59985 9.56329 1.19099 8.81811 1.15068ZM11.3302 5.57903C10.5197 7.00716 8.92971 8.52743 6.30299 9.99587L6.0012 10.1686L5.69881 9.99587C3.07149 8.52743 1.48154 7.00716 0.669765 5.57903C-0.14621 4.13938 -0.176209 2.78036 0.361374 1.73805C0.893558 0.707267 1.94953 0.0623056 3.12189 0.00471975C4.11246 -0.0471075 5.14263 0.327201 6.0006 1.1622C6.85797 0.327201 7.88814 -0.0471075 8.87811 0.00471975C10.0505 0.0623056 11.1064 0.707267 11.6386 1.73805C12.1762 2.78036 12.1462 4.13938 11.3302 5.57903Z" fill="#71767B"/>
</svg>
